<svg width="512" height="512" xmlns="http://www.w3.org/2000/svg">

 <g>
  <title>background</title>
  <rect fill="none" id="canvas_background" height="402" width="582" y="-1" x="-1"/>
 </g>
 <g>
  <title>Layer 1</title>
  <path fill="#717171" id="svg_2" d="m258.8,507.2c-138.4,0.6 -252.2,-114.6 -248.9,-255.3c3.1,-134 114.1,-244.7 252.1,-243.2c136.7,1.5 249.8,115.3 246.1,256.2c-3.5,133.4 -113.6,243 -249.3,242.3zm-218.6,-248.9c1.1,125.3 102.7,221.8 222.7,219.7c116.2,-2.1 214.7,-96.8 214.7,-220c0,-125.3 -102.4,-222.2 -222.8,-219.9c-116.2,2.1 -213.8,97.1 -214.6,220.2z"/>
  <path fill="#717171" id="svg_3" d="m206.8,433.4c0,-58.9 0,-117.3 0,-176.3c-13,0 -25.6,0 -38.5,0c0,-20 0,-39.4 0,-59.4c1.7,-0.1 3.4,-0.3 5.2,-0.3c9.3,0 18.7,-0.2 28,0.1c4.1,0.1 5.5,-1 5.4,-5.2c-0.2,-15.2 -0.2,-30.3 -0.1,-45.5c0.1,-17.1 4.9,-32.6 17.1,-45c11.8,-12 26.9,-18.5 43.3,-19.5c26.4,-1.5 52.9,-1.3 79.4,-1.8c0.3,0 0.6,0.3 1.2,0.6c0,20.1 0,40.3 0,61c-1.9,0.1 -3.7,0.2 -5.4,0.2c-12,0 -24,0 -36,0c-12.1,0.1 -19.2,7.3 -19.2,19.2c0,11.3 0,22.7 0.1,34c0,0.3 0.2,0.6 0.5,1.7c19.8,0 39.8,0 60.8,0c-2.6,20.3 -5,39.7 -7.6,59.8c-18.1,0 -35.8,0 -54,0c0,59.2 0,117.8 0,176.6c-26.9,-0.2 -53.1,-0.2 -80.2,-0.2z"/>
 </g>
</svg>