<svg width="512" height="512" xmlns="http://www.w3.org/2000/svg">

 <g>
  <title>background</title>
  <rect fill="none" id="canvas_background" height="402" width="582" y="-1" x="-1"/>
 </g>
 <g>
  <title>Layer 1</title>
  <path fill="#717171" id="svg_2" d="m258.9,507.2c-138.5,0.7 -252.3,-114.6 -249,-255.2c3,-134 114.1,-245 252.4,-243.3c136.6,1.7 249.4,115.4 245.8,256c-3.4,133.5 -113.4,243.1 -249.2,242.5zm-218.7,-249.3c0.9,122.6 97.9,218.2 214.4,219.9c123.6,1.8 222.8,-95.7 223.1,-219.5c0.1,-122.7 -97.8,-218 -214.5,-220.3c-120.1,-2.3 -222,94.3 -223,219.9z"/>
  <path fill="#717171" id="svg_3" d="m413.2,261.3c0,21.8 -0.6,43.7 0.1,65.5c1.5,41.9 -28.7,76.9 -68.6,86.9c-7.8,2 -16.1,3.2 -24.1,3.3c-42.3,0.3 -84.6,0.7 -126.9,0c-35.3,-0.6 -63.1,-15.6 -81.9,-46.1c-7.2,-11.7 -10.8,-24.7 -10.8,-38.5c-0.1,-47.5 -0.5,-95 0.1,-142.4c0.4,-31 15.9,-53.9 41.6,-70.3c16,-10.2 33.7,-14.8 52.6,-14.8c41.3,-0.1 82.6,-0.5 123.9,0.1c36.4,0.5 65.2,15.7 83.9,47.7c6.7,11.5 10.1,24.2 10.1,37.7c-0.1,23.6 0,47.3 0,70.9zm-289.2,-0.2c0,22.8 0,45.7 0,68.5c0,9.1 1.7,17.9 6,26c13.8,26 36.4,37.8 64.9,38.2c41.3,0.6 82.7,0.3 124,0c7.1,0 14.3,-1.2 21.2,-3c27.5,-7.4 50.9,-31.2 50.1,-66.1c-1,-44 -0.2,-88 -0.2,-132c0,-9.7 -1.8,-18.9 -6.5,-27.4c-14.1,-25.3 -36.6,-36.8 -64.6,-37.2c-41.2,-0.6 -82.3,-0.4 -123.5,0c-8.2,0.1 -16.6,1.6 -24.5,4c-26.9,8.3 -48.1,32.2 -47,64.4c0.7,21.6 0.1,43.1 0.1,64.6z"/>
  <path fill="#717171" id="svg_4" d="m257.1,183c40.7,-0.1 73.7,32.4 73.7,72.4c-0.1,39.8 -33,72.3 -73.3,72.4c-40.6,0.1 -73.5,-32.3 -73.5,-72.5c0,-39.9 32.6,-72.2 73.1,-72.3zm0,23.2c-27.4,0.1 -50,22.4 -49.9,49.3s22.6,49 50.2,49.1c27.5,0 50.1,-22.1 50.2,-49c-0.1,-27.3 -22.8,-49.5 -50.5,-49.4z"/>
  <path fill="#717171" id="svg_5" d="m354.8,176.7c0.2,8.5 -6.8,16 -15.1,16.3c-8.5,0.3 -15.8,-6.9 -15.9,-15.8c-0.1,-8.7 6.6,-16 14.9,-16.3c8.5,-0.3 15.9,7 16.1,15.8z"/>
 </g>
</svg>