<svg width="512" height="512" xmlns="http://www.w3.org/2000/svg">

 <g>
  <title>background</title>
  <rect fill="none" id="canvas_background" height="402" width="582" y="-1" x="-1"/>
 </g>
 <g>
  <title>Layer 1</title>
  <path fill="#717171" id="svg_2" d="m258.8,507.2c-138.4,0.6 -252.2,-114.6 -248.9,-255.3c3.1,-133.9 114,-244.7 252,-243.2c136.8,1.4 249.9,115.3 246.2,256.1c-3.5,133.4 -113.5,243 -249.3,242.4zm219,-249.4c-1.1,-125.4 -102.7,-221.9 -222.6,-219.8c-116.6,2 -215.1,97.2 -214.8,220.4c0.3,125.5 102.7,221.8 222.6,219.6c116.5,-2.2 214,-97.2 214.8,-220.2z"/>
  <path fill="#717171" id="svg_3" d="m98.226118,230.973882c10.3,2.9 20.3,5.8 30.4,8.6c0.3,-0.5 0.6,-1.1 0.9,-1.6c-20.1,-15.5 -31,-35.4 -30.5,-60.9c0.2,-13.2 4.1,-27.1 9.8,-34.2c39,45.3 87.9,70.9 147,74.7c0.5,-10.9 -0.1,-21.3 1.6,-31.3c7.3,-42.1 55.6,-68.6 95.4,-53c9.4,3.7 17.8,8.9 25.4,15.6c1.5,1.3 4.6,2.4 6.4,1.8c12.1,-4.1 24,-8.6 36,-13.1c1.7,-0.6 3.2,-1.6 5.8,-3c-5.5,16.9 -15.7,28.9 -28.8,39.4c4.1,-0.7 8.2,-1.3 12.2,-2.2c4.4,-1 8.7,-2.3 13,-3.7c4,-1.3 8,-2.8 13.1,-4.7c-9,13.5 -19.1,24.2 -30.9,33.3c-3.4,2.6 -4.7,5.1 -4.7,9.5c0.5,55.5 -18.3,103.8 -55.2,144.8c-28.8,32 -64.9,51.9 -107.3,60.1c-32.1,6.2 -63.9,5.6 -95.6,-2.7c-19.4,-5.1 -37.7,-13.1 -54.8,-23.6c-0.5,-0.3 -0.9,-0.8 -1.9,-1.7c38.9,3.3 73.5,-6.1 105.2,-29.9c-33.1,-3.2 -55,-19.6 -67.3,-50.5c10.7,0 20.5,0 30.3,0c0.1,-0.5 0.2,-1.1 0.3,-1.6c-20.6,-5.6 -36.5,-17.4 -46.9,-36.1c-6.1,-10.7 -8.8,-22.2 -8.9,-34z"/>
 </g>
</svg>